<svg xmlns="http://www.w3.org/2000/svg" xmlns:xlink="http://www.w3.org/1999/xlink" width="1920" zoomAndPan="magnify" viewBox="0 0 1440 809.999993" height="1080" preserveAspectRatio="xMidYMid meet" version="1.0"><defs><g/><linearGradient x1="0" gradientTransform="matrix(0.75, 0, 0, 0.75, 0.00000622222, 0.00002)" y1="540" x2="1919.99992" gradientUnits="userSpaceOnUse" y2="540" id="f0523a36c4"><stop stop-opacity="1" stop-color="rgb(100%, 97.299194%, 84.698486%)" offset="0"/><stop stop-opacity="1" stop-color="rgb(100%, 97.299194%, 84.698486%)" offset="0.25"/><stop stop-opacity="1" stop-color="rgb(100%, 97.299194%, 84.698486%)" offset="0.3125"/><stop stop-opacity="1" stop-color="rgb(100%, 97.299194%, 84.698486%)" offset="0.328125"/><stop stop-opacity="1" stop-color="rgb(99.913025%, 97.30072%, 84.765625%)" offset="0.335938"/><stop stop-opacity="1" stop-color="rgb(99.597168%, 97.305298%, 85.012817%)" offset="0.339844"/><stop stop-opacity="1" stop-color="rgb(99.368286%, 97.30835%, 85.191345%)" offset="0.34375"/><stop stop-opacity="1" stop-color="rgb(99.139404%, 97.311401%, 85.369873%)" offset="0.347656"/><stop stop-opacity="1" stop-color="rgb(98.910522%, 97.315979%, 85.549927%)" offset="0.351562"/><stop stop-opacity="1" stop-color="rgb(98.680115%, 97.319031%, 85.728455%)" offset="0.355469"/><stop stop-opacity="1" stop-color="rgb(98.451233%, 97.323608%, 85.906982%)" offset="0.359375"/><stop stop-opacity="1" stop-color="rgb(98.222351%, 97.32666%, 86.08551%)" offset="0.363281"/><stop stop-opacity="1" stop-color="rgb(97.993469%, 97.329712%, 86.265564%)" offset="0.367188"/><stop stop-opacity="1" stop-color="rgb(97.763062%, 97.332764%, 86.444092%)" offset="0.371094"/><stop stop-opacity="1" stop-color="rgb(97.53418%, 97.337341%, 86.62262%)" offset="0.375"/><stop stop-opacity="1" stop-color="rgb(97.305298%, 97.340393%, 86.801147%)" offset="0.378906"/><stop stop-opacity="1" stop-color="rgb(97.076416%, 97.343445%, 86.981201%)" offset="0.382812"/><stop stop-opacity="1" stop-color="rgb(96.846008%, 97.346497%, 87.159729%)" offset="0.386719"/><stop stop-opacity="1" stop-color="rgb(96.617126%, 97.351074%, 87.338257%)" offset="0.390625"/><stop stop-opacity="1" stop-color="rgb(96.388245%, 97.354126%, 87.516785%)" offset="0.394531"/><stop stop-opacity="1" stop-color="rgb(96.159363%, 97.358704%, 87.696838%)" offset="0.398438"/><stop stop-opacity="1" stop-color="rgb(95.928955%, 97.361755%, 87.875366%)" offset="0.402344"/><stop stop-opacity="1" stop-color="rgb(95.700073%, 97.364807%, 88.05542%)" offset="0.40625"/><stop stop-opacity="1" stop-color="rgb(95.471191%, 97.367859%, 88.233948%)" offset="0.410156"/><stop stop-opacity="1" stop-color="rgb(95.24231%, 97.372437%, 88.412476%)" offset="0.414062"/><stop stop-opacity="1" stop-color="rgb(95.013428%, 97.375488%, 88.591003%)" offset="0.417969"/><stop stop-opacity="1" stop-color="rgb(94.784546%, 97.37854%, 88.771057%)" offset="0.421875"/><stop stop-opacity="1" stop-color="rgb(94.554138%, 97.381592%, 88.949585%)" offset="0.425781"/><stop stop-opacity="1" stop-color="rgb(94.325256%, 97.386169%, 89.128113%)" offset="0.429688"/><stop stop-opacity="1" stop-color="rgb(94.096375%, 97.389221%, 89.306641%)" offset="0.433594"/><stop stop-opacity="1" stop-color="rgb(93.867493%, 97.393799%, 89.486694%)" offset="0.4375"/><stop stop-opacity="1" stop-color="rgb(93.637085%, 97.396851%, 89.665222%)" offset="0.441406"/><stop stop-opacity="1" stop-color="rgb(93.408203%, 97.399902%, 89.84375%)" offset="0.445312"/><stop stop-opacity="1" stop-color="rgb(93.179321%, 97.402954%, 90.022278%)" offset="0.449219"/><stop stop-opacity="1" stop-color="rgb(92.950439%, 97.407532%, 90.202332%)" offset="0.453125"/><stop stop-opacity="1" stop-color="rgb(92.720032%, 97.410583%, 90.380859%)" offset="0.457031"/><stop stop-opacity="1" stop-color="rgb(92.49115%, 97.413635%, 90.559387%)" offset="0.460938"/><stop stop-opacity="1" stop-color="rgb(92.262268%, 97.416687%, 90.737915%)" offset="0.464844"/><stop stop-opacity="1" stop-color="rgb(92.033386%, 97.421265%, 90.917969%)" offset="0.46875"/><stop stop-opacity="1" stop-color="rgb(91.802979%, 97.424316%, 91.096497%)" offset="0.472656"/><stop stop-opacity="1" stop-color="rgb(91.574097%, 97.428894%, 91.275024%)" offset="0.476562"/><stop stop-opacity="1" stop-color="rgb(91.345215%, 97.431946%, 91.453552%)" offset="0.480469"/><stop stop-opacity="1" stop-color="rgb(91.116333%, 97.434998%, 91.633606%)" offset="0.484375"/><stop stop-opacity="1" stop-color="rgb(90.885925%, 97.438049%, 91.812134%)" offset="0.488281"/><stop stop-opacity="1" stop-color="rgb(90.657043%, 97.442627%, 91.990662%)" offset="0.492188"/><stop stop-opacity="1" stop-color="rgb(90.428162%, 97.445679%, 92.169189%)" offset="0.496094"/><stop stop-opacity="1" stop-color="rgb(90.19928%, 97.44873%, 92.349243%)" offset="0.5"/><stop stop-opacity="1" stop-color="rgb(89.970398%, 97.451782%, 92.527771%)" offset="0.503906"/><stop stop-opacity="1" stop-color="rgb(89.741516%, 97.45636%, 92.707825%)" offset="0.507812"/><stop stop-opacity="1" stop-color="rgb(89.511108%, 97.459412%, 92.886353%)" offset="0.511719"/><stop stop-opacity="1" stop-color="rgb(89.282227%, 97.463989%, 93.06488%)" offset="0.515625"/><stop stop-opacity="1" stop-color="rgb(89.053345%, 97.467041%, 93.243408%)" offset="0.519531"/><stop stop-opacity="1" stop-color="rgb(88.824463%, 97.470093%, 93.423462%)" offset="0.523438"/><stop stop-opacity="1" stop-color="rgb(88.594055%, 97.473145%, 93.60199%)" offset="0.527344"/><stop stop-opacity="1" stop-color="rgb(88.365173%, 97.477722%, 93.780518%)" offset="0.53125"/><stop stop-opacity="1" stop-color="rgb(88.136292%, 97.480774%, 93.959045%)" offset="0.535156"/><stop stop-opacity="1" stop-color="rgb(87.90741%, 97.483826%, 94.139099%)" offset="0.539062"/><stop stop-opacity="1" stop-color="rgb(87.677002%, 97.486877%, 94.317627%)" offset="0.542969"/><stop stop-opacity="1" stop-color="rgb(87.44812%, 97.491455%, 94.496155%)" offset="0.546875"/><stop stop-opacity="1" stop-color="rgb(87.219238%, 97.494507%, 94.674683%)" offset="0.550781"/><stop stop-opacity="1" stop-color="rgb(86.990356%, 97.499084%, 94.854736%)" offset="0.554688"/><stop stop-opacity="1" stop-color="rgb(86.759949%, 97.502136%, 95.033264%)" offset="0.558594"/><stop stop-opacity="1" stop-color="rgb(86.531067%, 97.505188%, 95.211792%)" offset="0.5625"/><stop stop-opacity="1" stop-color="rgb(86.302185%, 97.50824%, 95.39032%)" offset="0.566406"/><stop stop-opacity="1" stop-color="rgb(86.073303%, 97.512817%, 95.570374%)" offset="0.570312"/><stop stop-opacity="1" stop-color="rgb(85.842896%, 97.515869%, 95.748901%)" offset="0.574219"/><stop stop-opacity="1" stop-color="rgb(85.614014%, 97.518921%, 95.927429%)" offset="0.578125"/><stop stop-opacity="1" stop-color="rgb(85.385132%, 97.521973%, 96.105957%)" offset="0.582031"/><stop stop-opacity="1" stop-color="rgb(85.15625%, 97.52655%, 96.286011%)" offset="0.585938"/><stop stop-opacity="1" stop-color="rgb(84.927368%, 97.529602%, 96.464539%)" offset="0.589844"/><stop stop-opacity="1" stop-color="rgb(84.698486%, 97.53418%, 96.643066%)" offset="0.59375"/><stop stop-opacity="1" stop-color="rgb(84.468079%, 97.537231%, 96.821594%)" offset="0.597656"/><stop stop-opacity="1" stop-color="rgb(84.239197%, 97.540283%, 97.001648%)" offset="0.601562"/><stop stop-opacity="1" stop-color="rgb(84.010315%, 97.543335%, 97.180176%)" offset="0.605469"/><stop stop-opacity="1" stop-color="rgb(83.781433%, 97.547913%, 97.360229%)" offset="0.609375"/><stop stop-opacity="1" stop-color="rgb(83.551025%, 97.550964%, 97.538757%)" offset="0.613281"/><stop stop-opacity="1" stop-color="rgb(83.322144%, 97.554016%, 97.717285%)" offset="0.617188"/><stop stop-opacity="1" stop-color="rgb(83.093262%, 97.557068%, 97.895813%)" offset="0.621094"/><stop stop-opacity="1" stop-color="rgb(82.86438%, 97.561646%, 98.075867%)" offset="0.625"/><stop stop-opacity="1" stop-color="rgb(82.633972%, 97.564697%, 98.254395%)" offset="0.628906"/><stop stop-opacity="1" stop-color="rgb(82.40509%, 97.569275%, 98.432922%)" offset="0.632812"/><stop stop-opacity="1" stop-color="rgb(82.176208%, 97.572327%, 98.61145%)" offset="0.636719"/><stop stop-opacity="1" stop-color="rgb(81.947327%, 97.575378%, 98.791504%)" offset="0.640625"/><stop stop-opacity="1" stop-color="rgb(81.716919%, 97.57843%, 98.970032%)" offset="0.644531"/><stop stop-opacity="1" stop-color="rgb(81.488037%, 97.583008%, 99.14856%)" offset="0.648438"/><stop stop-opacity="1" stop-color="rgb(81.259155%, 97.58606%, 99.327087%)" offset="0.652344"/><stop stop-opacity="1" stop-color="rgb(81.030273%, 97.589111%, 99.507141%)" offset="0.65625"/><stop stop-opacity="1" stop-color="rgb(80.799866%, 97.592163%, 99.685669%)" offset="0.660156"/><stop stop-opacity="1" stop-color="rgb(80.570984%, 97.596741%, 99.864197%)" offset="0.664062"/><stop stop-opacity="1" stop-color="rgb(80.484009%, 97.598267%, 99.931335%)" offset="0.671875"/><stop stop-opacity="1" stop-color="rgb(80.39856%, 97.599792%, 100%)" offset="0.6875"/><stop stop-opacity="1" stop-color="rgb(80.39856%, 97.599792%, 100%)" offset="0.75"/><stop stop-opacity="1" stop-color="rgb(80.39856%, 97.599792%, 100%)" offset="1"/></linearGradient></defs><rect x="-144" width="1728" fill="#ffffff" y="-80.999999" height="971.999992" fill-opacity="1"/><rect x="-144" fill="url(#f0523a36c4)" width="1728" y="-80.999999" height="971.999992"/><path fill="#5d7df4" d="M 795.625 498.210938 C 794.824219 500.042969 794.015625 501.875 793.207031 503.699219 C 790.402344 503.964844 787.199219 504.300781 784.167969 504.726562 C 776.210938 505.832031 766.21875 509.035156 746.332031 518.3125 C 726.453125 527.589844 709.550781 549.132812 696.128906 568.683594 C 682.707031 588.234375 669.453125 631.8125 658.679688 633.46875 C 647.910156 635.128906 639.128906 617.898438 634.988281 610.9375 C 630.84375 603.976562 620.570312 582.269531 615.933594 571.335938 C 611.292969 560.398438 597.59375 521.40625 590.304688 495.777344 C 583.011719 470.148438 580.144531 445.40625 579.480469 413.375 C 578.816406 381.335938 596.484375 363.664062 611.511719 357.699219 C 611.710938 357.621094 611.910156 357.546875 612.121094 357.476562 C 619.894531 354.765625 633.476562 356.839844 649.375 362.988281 C 665.042969 369.050781 682.980469 379.078125 699.835938 392.382812 C 699.835938 392.382812 670.777344 379.125 650.5625 379.625 C 630.347656 380.121094 616.265625 391.390625 608.972656 405.96875 C 601.683594 420.550781 600.023438 450.707031 602.675781 475.230469 C 605.328125 499.753906 615.933594 537.53125 622.558594 558.082031 C 629.1875 578.625 640.953125 597.347656 648.410156 602.320312 C 655.863281 607.289062 660.339844 599.835938 670.054688 578.84375 C 679.777344 557.859375 705.183594 534 718 523.613281 C 729.855469 514.003906 767.339844 500.515625 795.625 498.210938 " fill-opacity="1" fill-rule="nonzero"/><path fill="#5d7df4" d="M 610.628906 353.5 C 621.453125 348.863281 647.523438 351.070312 672.488281 365.210938 C 697.453125 379.347656 718 391.5 742.742188 384.652344 C 767.488281 377.804688 796.648438 368.523438 814.546875 378.242188 C 832.441406 387.964844 832.21875 414.035156 825.148438 440.546875 C 818.078125 467.054688 789.359375 534.21875 774.777344 555.207031 C 760.195312 576.195312 755.558594 584.8125 755.558594 584.8125 C 851.21875 486.71875 861.160156 407.628906 857.511719 392.382812 C 853.871094 377.140625 849.671875 371.175781 842.160156 366.3125 C 834.648438 361.453125 815.429688 351.734375 788.914062 359.246094 C 762.40625 366.757812 752.242188 372.058594 745.175781 374.488281 C 738.101562 376.917969 720.097656 378.464844 710.375 375.8125 C 700.65625 373.160156 668.511719 353.058594 651.058594 349.746094 C 625.042969 344.996094 610.628906 353.5 610.628906 353.5 " fill-opacity="1" fill-rule="nonzero"/><g fill="#5d7df4" fill-opacity="1"><g transform="translate(546.760641, 765.752213)"><g><path d="M 49.90625 0 L 45 -16.09375 L 20.34375 -16.09375 L 15.453125 0 L 0 0 L 23.859375 -67.890625 L 41.390625 -67.890625 L 65.34375 0 Z M 41.578125 -28.125 C 37.046875 -42.707031 34.492188 -50.953125 33.921875 -52.859375 C 33.347656 -54.773438 32.941406 -56.285156 32.703125 -57.390625 C 31.679688 -53.441406 28.765625 -43.6875 23.953125 -28.125 Z M 41.578125 -28.125 "/></g></g></g><g fill="#5d7df4" fill-opacity="1"><g transform="translate(612.105635, 765.752213)"><g><path d="M 22.84375 -37.59375 L 27.46875 -37.59375 C 32 -37.59375 35.34375 -38.347656 37.5 -39.859375 C 39.664062 -41.378906 40.75 -43.753906 40.75 -46.984375 C 40.75 -50.191406 39.644531 -52.472656 37.4375 -53.828125 C 35.226562 -55.191406 31.8125 -55.875 27.1875 -55.875 L 22.84375 -55.875 Z M 22.84375 -25.953125 L 22.84375 0 L 8.515625 0 L 8.515625 -67.609375 L 28.21875 -67.609375 C 37.40625 -67.609375 44.203125 -65.9375 48.609375 -62.59375 C 53.015625 -59.25 55.21875 -54.171875 55.21875 -47.359375 C 55.21875 -43.378906 54.125 -39.835938 51.9375 -36.734375 C 49.75 -33.640625 46.648438 -31.210938 42.640625 -29.453125 C 52.816406 -14.253906 59.445312 -4.4375 62.53125 0 L 46.625 0 L 30.484375 -25.953125 Z M 22.84375 -25.953125 "/></g></g></g><g fill="#5d7df4" fill-opacity="1"><g transform="translate(674.629649, 765.752213)"><g><path d="M 47.453125 0 L 8.515625 0 L 8.515625 -67.609375 L 47.453125 -67.609375 L 47.453125 -55.875 L 22.84375 -55.875 L 22.84375 -41.015625 L 45.734375 -41.015625 L 45.734375 -29.28125 L 22.84375 -29.28125 L 22.84375 -11.84375 L 47.453125 -11.84375 Z M 47.453125 0 "/></g></g></g><g fill="#5d7df4" fill-opacity="1"><g transform="translate(727.673321, 765.752213)"><g><path d="M 47.453125 0 L 8.515625 0 L 8.515625 -67.609375 L 47.453125 -67.609375 L 47.453125 -55.875 L 22.84375 -55.875 L 22.84375 -41.015625 L 45.734375 -41.015625 L 45.734375 -29.28125 L 22.84375 -29.28125 L 22.84375 -11.84375 L 47.453125 -11.84375 Z M 47.453125 0 "/></g></g></g><g fill="#5d7df4" fill-opacity="1"><g transform="translate(780.717004, 765.752213)"><g><path d="M 48.421875 -18.78125 C 48.421875 -12.675781 46.222656 -7.863281 41.828125 -4.34375 C 37.429688 -0.832031 31.320312 0.921875 23.5 0.921875 C 16.28125 0.921875 9.894531 -0.429688 4.34375 -3.140625 L 4.34375 -16.46875 C 8.90625 -14.425781 12.765625 -12.988281 15.921875 -12.15625 C 19.085938 -11.332031 21.984375 -10.921875 24.609375 -10.921875 C 27.753906 -10.921875 30.164062 -11.519531 31.84375 -12.71875 C 33.519531 -13.914062 34.359375 -15.703125 34.359375 -18.078125 C 34.359375 -19.410156 33.988281 -20.59375 33.25 -21.625 C 32.507812 -22.65625 31.421875 -23.644531 29.984375 -24.59375 C 28.554688 -25.550781 25.640625 -27.082031 21.234375 -29.1875 C 17.097656 -31.125 13.992188 -32.988281 11.921875 -34.78125 C 9.859375 -36.570312 8.210938 -38.648438 6.984375 -41.015625 C 5.753906 -43.390625 5.140625 -46.164062 5.140625 -49.34375 C 5.140625 -55.332031 7.164062 -60.035156 11.21875 -63.453125 C 15.269531 -66.878906 20.875 -68.59375 28.03125 -68.59375 C 31.539062 -68.59375 34.890625 -68.175781 38.078125 -67.34375 C 41.273438 -66.507812 44.613281 -65.335938 48.09375 -63.828125 L 43.46875 -52.671875 C 39.863281 -54.148438 36.878906 -55.179688 34.515625 -55.765625 C 32.160156 -56.359375 29.84375 -56.65625 27.5625 -56.65625 C 24.851562 -56.65625 22.769531 -56.019531 21.3125 -54.75 C 19.863281 -53.488281 19.140625 -51.84375 19.140625 -49.8125 C 19.140625 -48.550781 19.429688 -47.445312 20.015625 -46.5 C 20.609375 -45.5625 21.546875 -44.648438 22.828125 -43.765625 C 24.109375 -42.890625 27.132812 -41.3125 31.90625 -39.03125 C 38.226562 -36.007812 42.5625 -32.976562 44.90625 -29.9375 C 47.25 -26.90625 48.421875 -23.1875 48.421875 -18.78125 Z M 48.421875 -18.78125 "/></g></g></g><g fill="#5d7df4" fill-opacity="1"><g transform="translate(832.882011, 765.752213)"><g><path d="M 37.234375 -56.65625 C 31.835938 -56.65625 27.65625 -54.625 24.6875 -50.5625 C 21.726562 -46.507812 20.25 -40.863281 20.25 -33.625 C 20.25 -18.539062 25.910156 -11 37.234375 -11 C 41.984375 -11 47.734375 -12.1875 54.484375 -14.5625 L 54.484375 -2.546875 C 48.929688 -0.234375 42.734375 0.921875 35.890625 0.921875 C 26.054688 0.921875 18.53125 -2.054688 13.3125 -8.015625 C 8.101562 -13.984375 5.5 -22.550781 5.5 -33.71875 C 5.5 -40.75 6.78125 -46.90625 9.34375 -52.1875 C 11.90625 -57.476562 15.582031 -61.535156 20.375 -64.359375 C 25.164062 -67.179688 30.785156 -68.59375 37.234375 -68.59375 C 43.796875 -68.59375 50.394531 -67.003906 57.03125 -63.828125 L 52.40625 -52.171875 C 49.875 -53.367188 47.328125 -54.414062 44.765625 -55.3125 C 42.210938 -56.207031 39.703125 -56.65625 37.234375 -56.65625 Z M 37.234375 -56.65625 "/></g></g></g></svg>