<svg xmlns="http://www.w3.org/2000/svg" xmlns:xlink="http://www.w3.org/1999/xlink" width="500" zoomAndPan="magnify" viewBox="0 0 375 374.999991" height="500" preserveAspectRatio="xMidYMid meet" version="1.0"><path fill="#4b6d8e" d="M 280.742188 197.542969 C 279.75 199.804688 278.753906 202.0625 277.757812 204.308594 C 274.300781 204.636719 270.347656 205.050781 266.613281 205.574219 C 256.804688 206.9375 244.480469 210.886719 219.964844 222.328125 C 195.453125 233.769531 174.613281 260.328125 158.0625 284.433594 C 141.515625 308.542969 125.171875 362.269531 111.890625 364.3125 C 98.613281 366.359375 87.785156 345.113281 82.675781 336.53125 C 77.570312 327.949219 64.902344 301.1875 59.183594 287.703125 C 53.464844 274.21875 36.570312 226.144531 27.582031 194.542969 C 18.59375 162.941406 15.054688 132.433594 14.238281 92.941406 C 13.417969 53.4375 35.207031 31.648438 53.730469 24.296875 C 53.976562 24.199219 54.222656 24.109375 54.484375 24.019531 C 64.070312 20.675781 80.8125 23.234375 100.417969 30.816406 C 119.738281 38.292969 141.847656 50.652344 162.632812 67.058594 C 162.632812 67.058594 126.804688 50.714844 101.878906 51.332031 C 76.957031 51.945312 59.589844 65.835938 50.601562 83.8125 C 41.613281 101.792969 39.570312 138.972656 42.839844 169.207031 C 46.105469 199.445312 59.183594 246.027344 67.355469 271.359375 C 75.527344 296.691406 90.03125 319.777344 99.226562 325.90625 C 108.417969 332.035156 113.933594 322.84375 125.914062 296.960938 C 137.902344 271.089844 169.226562 241.671875 185.03125 228.863281 C 199.648438 217.015625 245.863281 200.386719 280.742188 197.542969 " fill-opacity="1" fill-rule="nonzero"/><path fill="#4b6d8e" d="M 52.640625 19.117188 C 65.988281 13.398438 98.132812 16.125 128.914062 33.558594 C 159.695312 50.988281 185.027344 65.96875 215.535156 57.527344 C 246.046875 49.082031 282.003906 37.640625 304.066406 49.625 C 326.132812 61.613281 325.855469 93.753906 317.140625 126.445312 C 308.421875 159.128906 273.011719 241.941406 255.035156 267.820312 C 237.058594 293.695312 231.335938 304.320312 231.335938 304.320312 C 349.285156 183.375 361.542969 85.859375 357.046875 67.058594 C 352.554688 48.265625 347.378906 40.910156 338.117188 34.917969 C 328.855469 28.925781 305.15625 16.941406 272.464844 26.203125 C 239.78125 35.464844 227.25 42 218.535156 44.996094 C 209.816406 47.992188 187.617188 49.902344 175.628906 46.628906 C 163.644531 43.359375 124.011719 18.574219 102.492188 14.488281 C 70.417969 8.632812 52.640625 19.117188 52.640625 19.117188 " fill-opacity="1" fill-rule="nonzero"/></svg>