<svg xmlns="http://www.w3.org/2000/svg" xmlns:xlink="http://www.w3.org/1999/xlink" width="500" zoomAndPan="magnify" viewBox="0 0 375 374.999991" height="500" preserveAspectRatio="xMidYMid meet" version="1.0"><defs><g/><clipPath id="dcc18d1c6b"><path d="M 19.425781 96 L 90 96 L 90 132 L 19.425781 132 Z M 19.425781 96 " clip-rule="nonzero"/></clipPath><clipPath id="16282708b7"><path d="M 275 156 L 312.675781 156 L 312.675781 215 L 275 215 Z M 275 156 " clip-rule="nonzero"/></clipPath><clipPath id="dc4aa2d38c"><path d="M 180 276 L 212 276 L 212 301.980469 L 180 301.980469 Z M 180 276 " clip-rule="nonzero"/></clipPath></defs><rect x="-37.5" width="450" fill="#ffffff" y="-37.499999" height="449.999989" fill-opacity="1"/><rect x="-37.5" width="450" fill="#ffffff" y="-37.499999" height="449.999989" fill-opacity="1"/><path fill="#203d4a" d="M 137.667969 270.445312 C 127.230469 268.097656 117.34375 265.140625 108.125 261.652344 C 109.976562 263.789062 111.902344 265.859375 113.902344 267.855469 C 127.328125 281.269531 144.015625 291.417969 162.675781 297.019531 C 153.550781 290.808594 145.332031 282.140625 138.390625 271.566406 C 138.148438 271.195312 137.90625 270.824219 137.667969 270.445312 " fill-opacity="1" fill-rule="evenodd"/><path fill="#203d4a" d="M 94.71875 249.199219 C 105.203125 252.171875 116.582031 254.328125 128.617188 255.589844 C 120.171875 244.300781 113.003906 230.75 107.671875 215.578125 C 95.289062 215.65625 83.871094 215.210938 73.707031 214.273438 C 73.171875 214.222656 72.644531 214.171875 72.117188 214.121094 C 77.535156 227.273438 85.257812 239.105469 94.71875 249.199219 " fill-opacity="1" fill-rule="evenodd"/><path fill="#4daacf" d="M 49.972656 192.734375 C 59.214844 194.929688 69.617188 196.847656 80.949219 198.4375 C 79.4375 189.109375 78.632812 179.355469 78.632812 169.328125 C 78.632812 159.296875 79.4375 149.546875 80.949219 140.214844 C 69.617188 141.804688 59.214844 143.722656 49.972656 145.921875 C 48.488281 146.273438 47.03125 146.632812 45.605469 146.996094 C 44.199219 154.222656 43.460938 161.6875 43.460938 169.324219 C 43.460938 176.960938 44.199219 184.425781 45.605469 191.652344 C 47.03125 192.019531 48.488281 192.378906 49.972656 192.734375 " fill-opacity="1" fill-rule="evenodd"/><g clip-path="url(#dcc18d1c6b)"><path fill="#ffcc00" d="M 20.847656 114.152344 C 29.90625 118.84375 39.757812 124.632812 50.140625 131.378906 C 62.824219 121.488281 76.1875 113.949219 89.398438 109.003906 C 78.585938 103.570312 67.84375 99.25 57.410156 96.09375 C 43.992188 99.484375 31.097656 105.277344 19.425781 113.421875 C 19.898438 113.664062 20.371094 113.90625 20.847656 114.152344 " fill-opacity="1" fill-rule="evenodd"/></g><path fill="#b565cf" d="M 90.644531 90.148438 C 94.273438 80.996094 98.75 71.703125 104.042969 62.417969 C 103.925781 61.988281 103.816406 61.558594 103.703125 61.128906 C 100.5625 48.878906 99.6875 36.972656 101.242188 26.050781 C 92.8125 43.601562 89.074219 62.757812 89.949219 81.707031 C 90.078125 84.527344 90.3125 87.34375 90.644531 90.148438 " fill-opacity="1" fill-rule="evenodd"/><path fill="#cc3f3f" d="M 112.695312 85.007812 C 110.597656 99.101562 111.035156 114.804688 114.191406 131.074219 C 125.433594 124.628906 137.785156 118.160156 151 111.863281 C 145.742188 95.882812 141.953125 81.128906 139.785156 68.566406 C 130.125 73.640625 121.0625 79.160156 112.695312 85.007812 " fill-opacity="1" fill-rule="evenodd"/><path fill="#203d4a" d="M 154.328125 75.746094 C 160.566406 68.75 167.390625 61.890625 174.757812 55.265625 C 170.507812 44.960938 168.152344 36.089844 167.976562 29.289062 C 158.242188 41.082031 153.757812 57.40625 154.328125 75.746094 " fill-opacity="1" fill-rule="evenodd"/><path fill="#e0a526" d="M 169.605469 100.660156 C 168.34375 113.207031 168.070312 128.351562 168.886719 145.105469 C 176.527344 143.804688 184.367188 142.613281 192.367188 141.546875 C 200.363281 140.480469 208.242188 139.578125 215.957031 138.828125 C 212.347656 122.445312 208.109375 107.90625 203.59375 96.128906 L 203.199219 95.097656 C 197.65625 95.492188 192.046875 96.0625 186.390625 96.816406 C 180.730469 97.574219 175.167969 98.492188 169.71875 99.558594 Z M 169.605469 100.660156 " fill-opacity="1" fill-rule="evenodd"/><path fill="#b565cf" d="M 172.785156 83.910156 C 177.796875 84.527344 182.855469 85.285156 187.941406 86.191406 C 193.027344 87.101562 198.035156 88.136719 202.949219 89.292969 C 201.363281 72.789062 197.773438 62.398438 192.367188 61.433594 C 186.964844 60.46875 179.996094 68.972656 172.785156 83.910156 " fill-opacity="1" fill-rule="evenodd"/><path fill="#203d4a" d="M 207.308594 70.53125 C 211.320312 76.027344 214.867188 84.492188 217.792969 95.246094 C 227.675781 96.007812 237.269531 97.285156 246.488281 99.03125 C 235.738281 84.148438 222.214844 73.945312 207.308594 70.53125 " fill-opacity="1" fill-rule="evenodd"/><path fill="#203d4a" d="M 251.097656 105.976562 C 240.976562 103.8125 230.335938 102.230469 219.320312 101.304688 C 222.253906 113.882812 224.539062 129.148438 225.945312 146.132812 C 240.761719 146.808594 254.847656 147.976562 267.882812 149.566406 C 264.40625 133.132812 258.617188 118.308594 251.097656 105.976562 " fill-opacity="1" fill-rule="evenodd"/><path fill="#203d4a" d="M 258.984375 107.808594 C 265.753906 120.171875 270.945312 134.597656 274.085938 150.363281 C 286.355469 152.03125 297.597656 154.074219 307.527344 156.433594 C 308.050781 156.558594 308.566406 156.683594 309.078125 156.808594 C 305.566406 143.027344 299.59375 130.222656 291.648438 118.902344 C 281.683594 114.484375 270.722656 110.746094 258.984375 107.808594 " fill-opacity="1" fill-rule="evenodd"/><path fill="#203d4a" d="M 254.808594 100.75 C 265.242188 103.097656 275.132812 106.058594 284.347656 109.546875 C 282.5 107.410156 280.570312 105.339844 278.574219 103.34375 C 265.148438 89.929688 248.457031 79.78125 229.796875 74.175781 C 238.925781 80.386719 247.140625 89.058594 254.082031 99.632812 C 254.324219 100.003906 254.566406 100.375 254.808594 100.75 " fill-opacity="1" fill-rule="evenodd"/><path fill="#2c90b6" d="M 222.71875 154.375 C 214.902344 153.308594 206.871094 152.359375 198.679688 151.550781 C 190.484375 150.742188 182.425781 150.097656 174.546875 149.613281 C 172.742188 160.183594 171.222656 171.421875 170.066406 183.101562 C 168.910156 194.785156 168.195312 206.105469 167.890625 216.824219 C 175.710938 217.890625 183.738281 218.835938 191.929688 219.644531 C 200.125 220.457031 208.183594 221.097656 216.0625 221.582031 C 217.863281 211.015625 219.386719 199.773438 220.542969 188.09375 C 221.703125 176.414062 222.414062 165.09375 222.71875 154.375 " fill-opacity="1" fill-rule="evenodd"/><path fill="#a3cf6e" d="M 148.667969 177.875 C 152.527344 166.902344 156.628906 156.421875 160.855469 146.621094 C 146.351562 142.277344 132.421875 138.6875 119.414062 135.882812 C 114.691406 144.347656 110.535156 153.519531 107.101562 163.28125 C 103.664062 173.046875 101.167969 182.800781 99.554688 192.351562 C 111.453125 198.292969 124.570312 204.199219 138.605469 209.871094 C 141.449219 199.585938 144.808594 188.84375 148.667969 177.875 " fill-opacity="1" fill-rule="evenodd"/><path fill="#203d4a" d="M 226.394531 152.078125 C 227.128906 162.722656 227.519531 173.96875 227.519531 185.597656 C 227.519531 197.226562 227.128906 208.476562 226.394531 219.117188 C 241.519531 218.414062 255.851562 217.1875 269.054688 215.523438 C 270.703125 205.976562 271.582031 195.945312 271.582031 185.597656 C 271.582031 175.25 270.703125 165.21875 269.054688 155.671875 C 255.851562 154.007812 241.519531 152.785156 226.394531 152.078125 " fill-opacity="1" fill-rule="evenodd"/><g clip-path="url(#16282708b7)"><path fill="#203d4a" d="M 275.191406 156.488281 C 276.703125 165.816406 277.503906 175.566406 277.503906 185.597656 C 277.503906 195.628906 276.703125 205.378906 275.191406 214.710938 C 286.519531 213.121094 296.925781 211.203125 306.164062 209.007812 C 307.652344 208.652344 309.109375 208.292969 310.53125 207.925781 C 311.9375 200.703125 312.675781 193.234375 312.675781 185.601562 C 312.675781 177.964844 311.9375 170.496094 310.53125 163.273438 C 309.105469 162.90625 307.652344 162.546875 306.164062 162.195312 C 296.925781 159.996094 286.519531 158.074219 275.191406 156.488281 " fill-opacity="1" fill-rule="evenodd"/></g><path fill="#203d4a" d="M 307.527344 214.761719 C 297.597656 217.121094 286.355469 219.167969 274.085938 220.832031 C 270.945312 236.601562 265.753906 251.023438 258.984375 263.390625 C 270.722656 260.449219 281.683594 256.710938 291.648438 252.292969 C 299.59375 240.972656 305.566406 228.171875 309.078125 214.386719 C 308.566406 214.511719 308.050781 214.636719 307.527344 214.761719 " fill-opacity="1" fill-rule="evenodd"/><path fill="#203d4a" d="M 284.347656 261.652344 C 275.132812 265.140625 265.242188 268.097656 254.808594 270.445312 C 254.566406 270.824219 254.324219 271.195312 254.082031 271.566406 C 247.140625 282.140625 238.925781 290.808594 229.800781 297.019531 C 248.457031 291.417969 265.148438 281.269531 278.574219 267.855469 C 280.570312 265.859375 282.5 263.789062 284.347656 261.652344 " fill-opacity="1" fill-rule="evenodd"/><path fill="#203d4a" d="M 207.308594 300.667969 C 222.214844 297.25 235.738281 287.050781 246.488281 272.167969 C 237.269531 273.910156 227.675781 275.1875 217.792969 275.949219 C 214.867188 286.703125 211.320312 295.167969 207.308594 300.667969 " fill-opacity="1" fill-rule="evenodd"/><path fill="#203d4a" d="M 219.320312 269.894531 C 230.335938 268.96875 240.976562 267.382812 251.097656 265.21875 C 258.617188 252.890625 264.40625 238.0625 267.882812 221.628906 C 254.847656 223.21875 240.761719 224.386719 225.945312 225.0625 C 224.539062 242.050781 222.253906 257.316406 219.320312 269.894531 " fill-opacity="1" fill-rule="evenodd"/><path fill="#203d4a" d="M 213.382812 269.265625 C 216.296875 256.996094 218.574219 242.023438 219.980469 225.308594 C 212.234375 225.585938 204.308594 225.730469 196.238281 225.730469 C 188.167969 225.730469 180.238281 225.585938 172.492188 225.308594 C 173.902344 242.023438 176.179688 256.996094 179.089844 269.265625 L 179.347656 270.34375 C 184.894531 270.683594 190.53125 270.855469 196.238281 270.855469 C 201.945312 270.855469 207.582031 270.683594 213.125 270.34375 Z M 213.382812 269.265625 " fill-opacity="1" fill-rule="evenodd"/><g clip-path="url(#dc4aa2d38c)"><path fill="#203d4a" d="M 196.238281 276.773438 C 191.070312 276.773438 185.960938 276.636719 180.914062 276.359375 C 185.382812 292.328125 190.746094 301.925781 196.238281 301.925781 C 201.726562 301.925781 207.089844 292.328125 211.558594 276.359375 C 206.515625 276.636719 201.40625 276.773438 196.238281 276.773438 " fill-opacity="1" fill-rule="evenodd"/></g><path fill="#203d4a" d="M 185.167969 300.667969 C 181.15625 295.167969 177.605469 286.703125 174.683594 275.949219 C 164.800781 275.1875 155.203125 273.910156 145.984375 272.167969 C 156.734375 287.050781 170.257812 297.25 185.167969 300.667969 " fill-opacity="1" fill-rule="evenodd"/><path fill="#203d4a" d="M 141.378906 265.21875 C 151.5 267.382812 162.136719 268.96875 173.15625 269.894531 C 170.222656 257.316406 167.9375 242.050781 166.53125 225.0625 C 151.710938 224.390625 137.628906 223.21875 124.589844 221.628906 C 128.066406 238.0625 133.855469 252.890625 141.378906 265.21875 " fill-opacity="1" fill-rule="evenodd"/><g fill="#013e63" fill-opacity="1"><g transform="translate(87.860627, 309.563519)"><g><path d="M 2.703125 2.453125 L 25.59375 -22.8125 L 35.125 -14.171875 C 37.164062 -12.316406 38.773438 -10.394531 39.953125 -8.40625 C 41.140625 -6.414062 41.660156 -4.363281 41.515625 -2.25 C 41.378906 -0.144531 40.316406 2 38.328125 4.1875 C 36.367188 6.351562 34.34375 7.613281 32.25 7.96875 C 30.164062 8.332031 28.070312 8.023438 25.96875 7.046875 C 23.875 6.066406 21.804688 4.648438 19.765625 2.796875 L 15.640625 -0.9375 L 8.109375 7.359375 Z M 19.953125 -5.703125 L 24.328125 -1.75 C 25.242188 -0.914062 26.175781 -0.253906 27.125 0.234375 C 28.070312 0.734375 29.03125 0.921875 30 0.796875 C 30.96875 0.679688 31.894531 0.128906 32.78125 -0.859375 C 33.675781 -1.835938 34.128906 -2.804688 34.140625 -3.765625 C 34.160156 -4.734375 33.878906 -5.664062 33.296875 -6.5625 C 32.722656 -7.46875 31.976562 -8.335938 31.0625 -9.171875 L 26.6875 -13.125 Z M 19.953125 -5.703125 "/></g></g></g><g fill="#013e63" fill-opacity="1"><g transform="translate(114.302676, 332.729659)"><g><path d="M 7.890625 5.25 C 6.640625 4.539062 5.609375 3.640625 4.796875 2.546875 C 3.984375 1.453125 3.515625 0.253906 3.390625 -1.046875 C 3.265625 -2.347656 3.578125 -3.664062 4.328125 -5 C 5.066406 -6.300781 5.945312 -7.226562 6.96875 -7.78125 C 8 -8.332031 9.097656 -8.617188 10.265625 -8.640625 C 11.441406 -8.671875 12.617188 -8.5 13.796875 -8.125 C 14.984375 -7.757812 16.085938 -7.289062 17.109375 -6.71875 C 17.921875 -6.25 18.71875 -5.726562 19.5 -5.15625 C 20.28125 -4.59375 20.992188 -4.019531 21.640625 -3.4375 L 22.046875 -4.15625 C 22.609375 -5.144531 22.671875 -6.1875 22.234375 -7.28125 C 21.796875 -8.382812 20.78125 -9.382812 19.1875 -10.28125 C 17.78125 -11.082031 16.375 -11.664062 14.96875 -12.03125 C 13.570312 -12.40625 12.28125 -12.660156 11.09375 -12.796875 L 14 -17.921875 C 14.96875 -17.742188 16.253906 -17.40625 17.859375 -16.90625 C 19.472656 -16.414062 21.054688 -15.726562 22.609375 -14.84375 C 24.671875 -13.675781 26.28125 -12.363281 27.4375 -10.90625 C 28.59375 -9.457031 29.195312 -7.832031 29.25 -6.03125 C 29.3125 -4.226562 28.710938 -2.207031 27.453125 0.03125 L 23.796875 6.5 C 23.484375 7.039062 23.421875 7.488281 23.609375 7.84375 C 23.804688 8.195312 24.085938 8.472656 24.453125 8.671875 C 24.628906 8.773438 24.820312 8.859375 25.03125 8.921875 C 25.238281 8.984375 25.429688 9.050781 25.609375 9.125 L 23.4375 12.96875 C 22.882812 12.882812 22.289062 12.738281 21.65625 12.53125 C 21.03125 12.320312 20.421875 12.050781 19.828125 11.71875 C 18.867188 11.164062 18.113281 10.492188 17.5625 9.703125 C 17.007812 8.910156 16.726562 8.023438 16.71875 7.046875 L 16.6875 6.890625 C 15.289062 7.117188 13.851562 7.117188 12.375 6.890625 C 10.90625 6.660156 9.410156 6.113281 7.890625 5.25 Z M 12.375 2.25 C 13.195312 2.707031 14.078125 3.015625 15.015625 3.171875 C 15.953125 3.328125 16.925781 3.300781 17.9375 3.09375 L 19.6875 0 C 19.300781 -0.375 18.8125 -0.78125 18.21875 -1.21875 C 17.625 -1.65625 17.035156 -2.039062 16.453125 -2.375 C 15.398438 -2.976562 14.316406 -3.332031 13.203125 -3.4375 C 12.097656 -3.539062 11.25 -3.070312 10.65625 -2.03125 C 10.226562 -1.269531 10.1875 -0.492188 10.53125 0.296875 C 10.882812 1.097656 11.5 1.75 12.375 2.25 Z M 12.375 2.25 "/></g></g></g><g fill="#013e63" fill-opacity="1"><g transform="translate(140.374544, 347.341448)"><g><path d="M -0.421875 11.09375 L 9.671875 -21.46875 L 15.390625 -19.703125 L 14.390625 -16.453125 C 15.398438 -17.222656 16.6875 -17.804688 18.25 -18.203125 C 19.820312 -18.597656 21.632812 -18.476562 23.6875 -17.84375 C 26.039062 -17.113281 27.851562 -15.9375 29.125 -14.3125 C 30.394531 -12.695312 31.164062 -10.859375 31.4375 -8.796875 C 31.71875 -6.742188 31.539062 -4.691406 30.90625 -2.640625 C 30.28125 -0.628906 29.269531 1.148438 27.875 2.703125 C 26.476562 4.253906 24.796875 5.335938 22.828125 5.953125 C 20.867188 6.578125 18.710938 6.523438 16.359375 5.796875 C 14.585938 5.242188 13.191406 4.476562 12.171875 3.5 C 11.148438 2.519531 10.398438 1.53125 9.921875 0.53125 L 6.03125 13.09375 Z M 16.46875 -0.140625 C 18.320312 0.429688 19.953125 0.25 21.359375 -0.6875 C 22.773438 -1.625 23.753906 -2.957031 24.296875 -4.6875 C 24.835938 -6.4375 24.789062 -8.09375 24.15625 -9.65625 C 23.519531 -11.226562 22.273438 -12.300781 20.421875 -12.875 C 19.015625 -13.3125 17.691406 -13.304688 16.453125 -12.859375 C 15.210938 -12.410156 14.222656 -11.773438 13.484375 -10.953125 L 11.84375 -5.640625 C 11.976562 -4.554688 12.429688 -3.476562 13.203125 -2.40625 C 13.972656 -1.332031 15.0625 -0.578125 16.46875 -0.140625 Z M 16.46875 -0.140625 "/></g></g></g><g fill="#013e63" fill-opacity="1"><g transform="translate(171.97301, 356.654786)"><g><path d="M 14.96875 2.03125 C 12.507812 1.8125 10.304688 1.148438 8.359375 0.046875 C 6.410156 -1.054688 4.898438 -2.582031 3.828125 -4.53125 C 2.765625 -6.488281 2.351562 -8.8125 2.59375 -11.5 C 2.789062 -13.695312 3.328125 -15.535156 4.203125 -17.015625 C 5.085938 -18.503906 6.171875 -19.6875 7.453125 -20.5625 C 8.742188 -21.445312 10.113281 -22.0625 11.5625 -22.40625 C 13.007812 -22.757812 14.382812 -22.878906 15.6875 -22.765625 C 18.101562 -22.546875 20.078125 -21.9375 21.609375 -20.9375 C 23.148438 -19.9375 24.304688 -18.691406 25.078125 -17.203125 C 25.847656 -15.710938 26.257812 -14.097656 26.3125 -12.359375 C 26.375 -10.628906 26.132812 -8.929688 25.59375 -7.265625 L 9.1875 -8.71875 C 9.34375 -7.5625 9.789062 -6.597656 10.53125 -5.828125 C 11.28125 -5.066406 12.222656 -4.46875 13.359375 -4.03125 C 14.492188 -3.601562 15.695312 -3.335938 16.96875 -3.234375 C 18.289062 -3.109375 19.550781 -3.113281 20.75 -3.25 C 21.945312 -3.394531 23.070312 -3.628906 24.125 -3.953125 L 23.640625 1.328125 C 22.503906 1.679688 21.210938 1.925781 19.765625 2.0625 C 18.316406 2.195312 16.71875 2.1875 14.96875 2.03125 Z M 9.53125 -13.078125 L 19.8125 -12.15625 C 19.957031 -12.695312 19.953125 -13.367188 19.796875 -14.171875 C 19.640625 -14.972656 19.222656 -15.707031 18.546875 -16.375 C 17.867188 -17.050781 16.832031 -17.453125 15.4375 -17.578125 C 14.019531 -17.710938 12.734375 -17.398438 11.578125 -16.640625 C 10.421875 -15.878906 9.738281 -14.691406 9.53125 -13.078125 Z M 9.53125 -13.078125 "/></g></g></g><g fill="#013e63" fill-opacity="1"><g transform="translate(200.639201, 358.711928)"><g><path d="M 2.859375 -0.234375 L 0.96875 -23.53125 L 6.9375 -24.015625 L 7.21875 -20.53125 C 7.957031 -21.875 9.113281 -23.007812 10.6875 -23.9375 C 12.257812 -24.875 14.15625 -25.316406 16.375 -25.265625 L 16.90625 -18.65625 C 15 -18.863281 13.28125 -18.582031 11.75 -17.8125 C 10.21875 -17.039062 9.132812 -15.925781 8.5 -14.46875 L 9.609375 -0.78125 Z M 2.859375 -0.234375 "/></g></g></g><g fill="#013e63" fill-opacity="1"><g transform="translate(221.819384, 357.213759)"><g><path d="M 3.53125 -0.921875 L -5.125 -33.890625 L 1.9375 -35.75 L 8.90625 -9.1875 L 25.125 -13.453125 L 26.8125 -7.046875 Z M 3.53125 -0.921875 "/></g></g></g><g fill="#013e63" fill-opacity="1"><g transform="translate(251.57656, 349.04308)"><g><path d="M 13.828125 -6.109375 C 11.617188 -5.015625 9.390625 -4.425781 7.140625 -4.34375 C 4.898438 -4.257812 2.816406 -4.769531 0.890625 -5.875 C -1.035156 -6.988281 -2.597656 -8.753906 -3.796875 -11.171875 C -4.773438 -13.148438 -5.273438 -15 -5.296875 -16.71875 C -5.328125 -18.4375 -5.023438 -20.007812 -4.390625 -21.4375 C -3.765625 -22.863281 -2.925781 -24.101562 -1.875 -25.15625 C -0.820312 -26.207031 0.285156 -27.019531 1.453125 -27.59375 C 3.628906 -28.675781 5.632812 -29.191406 7.46875 -29.140625 C 9.3125 -29.097656 10.945312 -28.640625 12.375 -27.765625 C 13.8125 -26.898438 15.003906 -25.742188 15.953125 -24.296875 C 16.910156 -22.847656 17.597656 -21.269531 18.015625 -19.5625 L 3.265625 -12.234375 C 4.003906 -11.335938 4.894531 -10.753906 5.9375 -10.484375 C 6.976562 -10.222656 8.09375 -10.203125 9.28125 -10.421875 C 10.476562 -10.648438 11.644531 -11.046875 12.78125 -11.609375 C 13.96875 -12.203125 15.035156 -12.875 15.984375 -13.625 C 16.941406 -14.375 17.773438 -15.160156 18.484375 -15.984375 L 20.859375 -11.234375 C 20.066406 -10.328125 19.085938 -9.441406 17.921875 -8.578125 C 16.765625 -7.710938 15.398438 -6.890625 13.828125 -6.109375 Z M 1.28125 -16.125 L 10.53125 -20.734375 C 10.363281 -21.273438 10.003906 -21.84375 9.453125 -22.4375 C 8.910156 -23.03125 8.171875 -23.441406 7.234375 -23.671875 C 6.304688 -23.898438 5.21875 -23.703125 3.96875 -23.078125 C 2.695312 -22.441406 1.765625 -21.492188 1.171875 -20.234375 C 0.578125 -18.984375 0.613281 -17.613281 1.28125 -16.125 Z M 1.28125 -16.125 "/></g></g></g><g fill="#013e63" fill-opacity="1"><g transform="translate(277.112716, 335.80333)"><g><path d="M 4.15625 -3.046875 L -6.296875 -17.296875 L -9.546875 -14.921875 L -12.921875 -19.515625 L -9.671875 -21.890625 L -11.03125 -23.75 C -12.425781 -25.65625 -13.140625 -27.414062 -13.171875 -29.03125 C -13.203125 -30.644531 -12.804688 -32.082031 -11.984375 -33.34375 C -11.171875 -34.613281 -10.171875 -35.679688 -8.984375 -36.546875 C -8.128906 -37.179688 -7.238281 -37.71875 -6.3125 -38.15625 C -5.394531 -38.601562 -4.550781 -38.929688 -3.78125 -39.140625 L -0.40625 -34.546875 C -0.976562 -34.453125 -1.609375 -34.269531 -2.296875 -34 C -2.992188 -33.738281 -3.640625 -33.390625 -4.234375 -32.953125 C -5.128906 -32.296875 -5.757812 -31.519531 -6.125 -30.625 C -6.5 -29.726562 -6.253906 -28.691406 -5.390625 -27.515625 L -4.203125 -25.90625 L 1.53125 -30.109375 L 4.90625 -25.515625 L -0.828125 -21.3125 L 9.625 -7.0625 Z M 4.15625 -3.046875 "/></g></g></g><g fill="#013e63" fill-opacity="1"><g transform="translate(294.251155, 323.102571)"><g><path d="M 9.75 -8.703125 C 8.6875 -7.648438 7.523438 -6.851562 6.265625 -6.3125 C 5.003906 -5.769531 3.679688 -5.632812 2.296875 -5.90625 C 0.921875 -6.1875 -0.441406 -7.003906 -1.796875 -8.359375 L -9.15625 -15.796875 L -11.953125 -13.03125 L -15.96875 -17.078125 L -13.171875 -19.84375 L -17.984375 -24.703125 L -14.296875 -30.59375 L -8.359375 -24.609375 L -3.140625 -29.796875 L 0.875 -25.75 L -4.34375 -20.5625 L 2.09375 -14.0625 C 2.9375 -13.207031 3.765625 -12.796875 4.578125 -12.828125 C 5.398438 -12.867188 6.257812 -13.332031 7.15625 -14.21875 C 8.195312 -15.25 9.023438 -16.414062 9.640625 -17.71875 L 13.484375 -13.859375 C 13.066406 -12.992188 12.546875 -12.125 11.921875 -11.25 C 11.304688 -10.382812 10.582031 -9.535156 9.75 -8.703125 Z M 9.75 -8.703125 "/></g></g></g></svg>