<svg xmlns="http://www.w3.org/2000/svg" xmlns:xlink="http://www.w3.org/1999/xlink" width="500" zoomAndPan="magnify" viewBox="0 0 375 374.999991" height="500" preserveAspectRatio="xMidYMid meet" version="1.0"><defs><g/><clipPath id="b338e9a49a"><path d="M 146 37.5 L 229 37.5 L 229 76 L 146 76 Z M 146 37.5 " clip-rule="nonzero"/></clipPath><clipPath id="46d620aab5"><path d="M 86.171875 164 L 288.671875 164 L 288.671875 257.25 L 86.171875 257.25 Z M 86.171875 164 " clip-rule="nonzero"/></clipPath></defs><g clip-path="url(#b338e9a49a)"><path fill="#ffffff" d="M 153.171875 44.363281 L 174.796875 44.363281 L 182.175781 51.402344 C 183.207031 52.429688 184.578125 52.945312 185.953125 52.945312 L 221.820312 52.945312 L 221.820312 75.257812 L 228.6875 75.257812 L 228.6875 51.402344 C 228.6875 48.484375 226.285156 46.253906 223.367188 46.253906 L 186.640625 46.253906 L 179.257812 39.214844 C 178.058594 38.015625 176.683594 37.5 175.3125 37.5 L 151.628906 37.5 C 148.710938 37.5 146.308594 39.902344 146.308594 42.648438 L 146.308594 64.960938 L 153.171875 64.960938 Z M 153.171875 44.363281 " fill-opacity="1" fill-rule="nonzero"/></g><path fill="#ffffff" d="M 134.292969 77.488281 L 134.292969 99.285156 L 141.160156 99.285156 L 141.160156 78.691406 L 171.191406 78.691406 L 181.320312 87.441406 C 182.347656 88.472656 183.894531 88.988281 185.4375 88.988281 L 233.835938 88.988281 L 233.835938 113.015625 L 240.699219 113.015625 L 240.699219 87.785156 C 240.699219 84.695312 238.125 82.121094 234.867188 82.121094 L 185.78125 82.121094 L 175.484375 73.371094 C 174.453125 72.339844 172.910156 71.824219 171.363281 71.824219 L 140.128906 71.824219 C 136.867188 71.824219 134.292969 74.398438 134.292969 77.488281 Z M 134.292969 77.488281 " fill-opacity="1" fill-rule="nonzero"/><path fill="#ffffff" d="M 243.789062 58.09375 L 278.113281 157.636719 L 285.324219 157.636719 L 250.140625 55.863281 C 249.28125 53.117188 246.707031 51.230469 243.789062 51.230469 L 235.550781 51.230469 C 235.550781 51.230469 235.550781 51.230469 235.550781 51.402344 L 235.550781 58.09375 Z M 243.789062 58.09375 " fill-opacity="1" fill-rule="nonzero"/><path fill="#ffffff" d="M 246.191406 119.878906 L 185.09375 119.878906 L 172.222656 107.867188 C 171.019531 106.664062 169.304688 105.976562 167.589844 105.976562 L 128.800781 105.976562 C 125.199219 105.976562 122.28125 108.722656 122.28125 112.328125 L 122.28125 157.636719 L 129.144531 157.636719 L 129.144531 142.191406 L 245.847656 142.191406 L 245.847656 157.636719 L 252.714844 157.636719 L 252.714844 138.929688 C 252.714844 138.929688 252.714844 138.757812 252.714844 138.757812 C 252.714844 138.757812 252.714844 138.585938 252.714844 138.585938 L 252.714844 126.230469 C 252.714844 122.796875 249.796875 119.878906 246.191406 119.878906 Z M 129.144531 135.324219 L 129.144531 113.015625 L 167.589844 113.015625 L 180.460938 125.027344 C 181.660156 126.230469 183.378906 126.917969 185.09375 126.917969 L 245.847656 126.917969 L 245.847656 135.496094 L 129.144531 135.496094 Z M 129.144531 135.324219 " fill-opacity="1" fill-rule="nonzero"/><g clip-path="url(#46d620aab5)"><path fill="#ffffff" d="M 89.671875 257.179688 L 285.324219 257.179688 C 287.210938 257.179688 288.753906 255.636719 288.753906 253.746094 L 288.753906 167.933594 C 288.753906 166.046875 287.210938 164.503906 285.324219 164.503906 L 214.957031 164.503906 C 213.753906 164.503906 212.726562 165.015625 212.039062 166.046875 L 205.175781 176.515625 L 169.820312 176.515625 L 163.640625 167.078125 C 163.296875 165.53125 161.925781 164.503906 160.378906 164.503906 L 89.671875 164.503906 C 87.78125 164.503906 86.238281 166.046875 86.238281 167.933594 L 86.238281 253.746094 C 86.238281 255.636719 87.78125 257.179688 89.671875 257.179688 Z M 93.101562 171.367188 L 158.320312 171.367188 L 164.15625 180.292969 C 165.359375 182.179688 167.589844 183.382812 169.992188 183.382812 L 205.347656 183.382812 C 207.75 183.382812 209.808594 182.179688 211.179688 180.292969 L 216.671875 171.367188 L 281.890625 171.367188 L 281.890625 250.316406 L 93.101562 250.316406 Z M 93.101562 171.367188 " fill-opacity="1" fill-rule="nonzero"/></g><path fill="#ffffff" d="M 206.71875 200.542969 L 168.273438 200.542969 C 160.894531 200.542969 154.886719 206.550781 154.886719 213.929688 L 154.886719 214.445312 C 154.886719 221.824219 160.894531 227.832031 168.273438 227.832031 L 206.546875 227.832031 C 213.925781 227.832031 219.933594 221.824219 219.933594 214.445312 L 219.933594 213.929688 C 220.105469 206.550781 214.097656 200.542969 206.71875 200.542969 Z M 213.242188 214.617188 C 213.242188 218.222656 210.324219 221.136719 206.71875 221.136719 L 168.273438 221.136719 C 164.671875 221.136719 161.753906 218.222656 161.753906 214.617188 L 161.753906 214.101562 C 161.753906 210.496094 164.671875 207.582031 168.273438 207.582031 L 206.546875 207.582031 C 210.152344 207.582031 213.070312 210.496094 213.070312 214.101562 L 213.070312 214.617188 Z M 213.242188 214.617188 " fill-opacity="1" fill-rule="nonzero"/><path fill="#ffffff" d="M 96.878906 157.636719 L 131.203125 58.09375 L 139.441406 58.09375 L 139.441406 51.230469 L 131.203125 51.230469 C 128.285156 51.230469 125.710938 53.117188 124.683594 55.863281 L 89.671875 157.636719 Z M 96.878906 157.636719 " fill-opacity="1" fill-rule="nonzero"/><g fill="#ffffff" fill-opacity="1"><g transform="translate(76.948395, 293.590897)"><g><path d="M 2.703125 2.453125 L 25.609375 -22.8125 L 35.140625 -14.171875 C 37.179688 -12.316406 38.789062 -10.394531 39.96875 -8.40625 C 41.15625 -6.414062 41.675781 -4.363281 41.53125 -2.25 C 41.382812 -0.144531 40.316406 2 38.328125 4.1875 C 36.367188 6.351562 34.34375 7.613281 32.25 7.96875 C 30.164062 8.332031 28.070312 8.023438 25.96875 7.046875 C 23.875 6.066406 21.804688 4.648438 19.765625 2.796875 L 15.640625 -0.9375 L 8.109375 7.359375 Z M 19.953125 -5.703125 L 24.328125 -1.75 C 25.242188 -0.914062 26.175781 -0.253906 27.125 0.234375 C 28.070312 0.734375 29.03125 0.925781 30 0.8125 C 30.96875 0.695312 31.894531 0.144531 32.78125 -0.84375 C 33.675781 -1.820312 34.128906 -2.796875 34.140625 -3.765625 C 34.160156 -4.734375 33.878906 -5.664062 33.296875 -6.5625 C 32.722656 -7.46875 31.976562 -8.335938 31.0625 -9.171875 L 26.6875 -13.125 Z M 19.953125 -5.703125 "/></g></g></g><g fill="#ffffff" fill-opacity="1"><g transform="translate(103.404395, 316.770993)"><g><path d="M 7.890625 5.25 C 6.640625 4.539062 5.609375 3.640625 4.796875 2.546875 C 3.984375 1.453125 3.515625 0.253906 3.390625 -1.046875 C 3.265625 -2.347656 3.578125 -3.664062 4.328125 -5 C 5.066406 -6.300781 5.945312 -7.226562 6.96875 -7.78125 C 8 -8.332031 9.097656 -8.617188 10.265625 -8.640625 C 11.441406 -8.671875 12.625 -8.5 13.8125 -8.125 C 15 -7.757812 16.101562 -7.289062 17.125 -6.71875 C 17.9375 -6.25 18.726562 -5.726562 19.5 -5.15625 C 20.28125 -4.59375 20.992188 -4.019531 21.640625 -3.4375 L 22.046875 -4.15625 C 22.609375 -5.144531 22.671875 -6.1875 22.234375 -7.28125 C 21.796875 -8.382812 20.78125 -9.382812 19.1875 -10.28125 C 17.78125 -11.082031 16.375 -11.664062 14.96875 -12.03125 C 13.570312 -12.40625 12.28125 -12.660156 11.09375 -12.796875 L 14 -17.921875 C 14.96875 -17.742188 16.253906 -17.40625 17.859375 -16.90625 C 19.472656 -16.414062 21.054688 -15.726562 22.609375 -14.84375 C 24.671875 -13.675781 26.28125 -12.363281 27.4375 -10.90625 C 28.59375 -9.457031 29.195312 -7.832031 29.25 -6.03125 C 29.3125 -4.226562 28.710938 -2.207031 27.453125 0.03125 L 23.796875 6.5 C 23.484375 7.039062 23.421875 7.488281 23.609375 7.84375 C 23.804688 8.195312 24.085938 8.472656 24.453125 8.671875 C 24.617188 8.773438 24.804688 8.859375 25.015625 8.921875 C 25.234375 8.984375 25.429688 9.050781 25.609375 9.125 L 23.4375 12.96875 C 22.882812 12.882812 22.289062 12.738281 21.65625 12.53125 C 21.03125 12.320312 20.421875 12.050781 19.828125 11.71875 C 18.867188 11.175781 18.109375 10.503906 17.546875 9.703125 C 16.992188 8.910156 16.71875 8.023438 16.71875 7.046875 L 16.6875 6.890625 C 15.289062 7.128906 13.851562 7.128906 12.375 6.890625 C 10.90625 6.660156 9.410156 6.113281 7.890625 5.25 Z M 12.375 2.25 C 13.195312 2.707031 14.078125 3.015625 15.015625 3.171875 C 15.953125 3.328125 16.925781 3.300781 17.9375 3.09375 L 19.6875 0 C 19.300781 -0.375 18.8125 -0.78125 18.21875 -1.21875 C 17.632812 -1.65625 17.050781 -2.039062 16.46875 -2.375 C 15.414062 -2.976562 14.332031 -3.332031 13.21875 -3.4375 C 12.101562 -3.539062 11.25 -3.070312 10.65625 -2.03125 C 10.226562 -1.269531 10.1875 -0.492188 10.53125 0.296875 C 10.882812 1.097656 11.5 1.75 12.375 2.25 Z M 12.375 2.25 "/></g></g></g><g fill="#ffffff" fill-opacity="1"><g transform="translate(129.492561, 331.390735)"><g><path d="M -0.421875 11.09375 L 9.671875 -21.46875 L 15.390625 -19.703125 L 14.390625 -16.453125 C 15.398438 -17.222656 16.6875 -17.804688 18.25 -18.203125 C 19.820312 -18.597656 21.632812 -18.476562 23.6875 -17.84375 C 26.039062 -17.113281 27.851562 -15.9375 29.125 -14.3125 C 30.394531 -12.695312 31.164062 -10.859375 31.4375 -8.796875 C 31.71875 -6.742188 31.539062 -4.691406 30.90625 -2.640625 C 30.28125 -0.628906 29.269531 1.148438 27.875 2.703125 C 26.476562 4.253906 24.796875 5.335938 22.828125 5.953125 C 20.867188 6.578125 18.710938 6.523438 16.359375 5.796875 C 14.585938 5.242188 13.191406 4.476562 12.171875 3.5 C 11.148438 2.519531 10.398438 1.53125 9.921875 0.53125 L 6.03125 13.09375 Z M 16.46875 -0.140625 C 18.320312 0.429688 19.953125 0.25 21.359375 -0.6875 C 22.773438 -1.625 23.753906 -2.957031 24.296875 -4.6875 C 24.835938 -6.4375 24.789062 -8.09375 24.15625 -9.65625 C 23.519531 -11.226562 22.273438 -12.300781 20.421875 -12.875 C 19.015625 -13.3125 17.691406 -13.304688 16.453125 -12.859375 C 15.210938 -12.410156 14.222656 -11.773438 13.484375 -10.953125 L 11.84375 -5.640625 C 11.976562 -4.554688 12.429688 -3.476562 13.203125 -2.40625 C 13.972656 -1.332031 15.0625 -0.578125 16.46875 -0.140625 Z M 16.46875 -0.140625 "/></g></g></g><g fill="#ffffff" fill-opacity="1"><g transform="translate(161.108918, 340.708931)"><g><path d="M 14.96875 2.03125 C 12.507812 1.8125 10.304688 1.148438 8.359375 0.046875 C 6.410156 -1.054688 4.898438 -2.582031 3.828125 -4.53125 C 2.765625 -6.488281 2.351562 -8.8125 2.59375 -11.5 C 2.789062 -13.695312 3.328125 -15.535156 4.203125 -17.015625 C 5.085938 -18.503906 6.171875 -19.6875 7.453125 -20.5625 C 8.742188 -21.445312 10.113281 -22.0625 11.5625 -22.40625 C 13.007812 -22.757812 14.382812 -22.878906 15.6875 -22.765625 C 18.101562 -22.546875 20.078125 -21.9375 21.609375 -20.9375 C 23.148438 -19.9375 24.304688 -18.691406 25.078125 -17.203125 C 25.847656 -15.710938 26.257812 -14.097656 26.3125 -12.359375 C 26.375 -10.628906 26.132812 -8.929688 25.59375 -7.265625 L 9.1875 -8.71875 C 9.34375 -7.5625 9.789062 -6.597656 10.53125 -5.828125 C 11.28125 -5.066406 12.222656 -4.46875 13.359375 -4.03125 C 14.492188 -3.601562 15.695312 -3.335938 16.96875 -3.234375 C 18.289062 -3.109375 19.550781 -3.113281 20.75 -3.25 C 21.945312 -3.394531 23.070312 -3.628906 24.125 -3.953125 L 23.640625 1.328125 C 22.503906 1.679688 21.210938 1.925781 19.765625 2.0625 C 18.316406 2.195312 16.71875 2.1875 14.96875 2.03125 Z M 9.53125 -13.078125 L 19.8125 -12.15625 C 19.957031 -12.695312 19.953125 -13.367188 19.796875 -14.171875 C 19.640625 -14.972656 19.222656 -15.707031 18.546875 -16.375 C 17.867188 -17.050781 16.832031 -17.453125 15.4375 -17.578125 C 14.019531 -17.710938 12.734375 -17.398438 11.578125 -16.640625 C 10.421875 -15.878906 9.738281 -14.691406 9.53125 -13.078125 Z M 9.53125 -13.078125 "/></g></g></g><g fill="#ffffff" fill-opacity="1"><g transform="translate(189.790217, 342.76618)"><g><path d="M 2.859375 -0.234375 L 0.96875 -23.53125 L 6.9375 -24.015625 L 7.21875 -20.53125 C 7.957031 -21.875 9.113281 -23.007812 10.6875 -23.9375 C 12.257812 -24.875 14.15625 -25.316406 16.375 -25.265625 L 16.90625 -18.65625 C 15 -18.863281 13.28125 -18.582031 11.75 -17.8125 C 10.21875 -17.039062 9.132812 -15.925781 8.5 -14.46875 L 9.609375 -0.78125 Z M 2.859375 -0.234375 "/></g></g></g><g fill="#ffffff" fill-opacity="1"><g transform="translate(210.985006, 341.265173)"><g><path d="M 3.53125 -0.921875 L -5.125 -33.890625 L 1.9375 -35.75 L 8.90625 -9.1875 L 25.125 -13.453125 L 26.8125 -7.046875 Z M 3.53125 -0.921875 "/></g></g></g><g fill="#ffffff" fill-opacity="1"><g transform="translate(240.758592, 333.087299)"><g><path d="M 13.828125 -6.109375 C 11.617188 -5.015625 9.390625 -4.425781 7.140625 -4.34375 C 4.898438 -4.257812 2.816406 -4.769531 0.890625 -5.875 C -1.035156 -6.988281 -2.597656 -8.753906 -3.796875 -11.171875 C -4.773438 -13.148438 -5.28125 -15 -5.3125 -16.71875 C -5.34375 -18.4375 -5.039062 -20.003906 -4.40625 -21.421875 C -3.769531 -22.847656 -2.925781 -24.085938 -1.875 -25.140625 C -0.820312 -26.203125 0.285156 -27.019531 1.453125 -27.59375 C 3.628906 -28.675781 5.632812 -29.191406 7.46875 -29.140625 C 9.3125 -29.097656 10.945312 -28.644531 12.375 -27.78125 C 13.8125 -26.914062 15.003906 -25.753906 15.953125 -24.296875 C 16.910156 -22.847656 17.597656 -21.269531 18.015625 -19.5625 L 3.265625 -12.234375 C 4.003906 -11.335938 4.890625 -10.753906 5.921875 -10.484375 C 6.960938 -10.222656 8.082031 -10.203125 9.28125 -10.421875 C 10.476562 -10.648438 11.644531 -11.046875 12.78125 -11.609375 C 13.96875 -12.203125 15.035156 -12.875 15.984375 -13.625 C 16.941406 -14.375 17.773438 -15.160156 18.484375 -15.984375 L 20.859375 -11.234375 C 20.066406 -10.328125 19.085938 -9.441406 17.921875 -8.578125 C 16.765625 -7.710938 15.398438 -6.890625 13.828125 -6.109375 Z M 1.28125 -16.125 L 10.53125 -20.734375 C 10.363281 -21.273438 10.003906 -21.84375 9.453125 -22.4375 C 8.910156 -23.03125 8.171875 -23.441406 7.234375 -23.671875 C 6.304688 -23.898438 5.21875 -23.703125 3.96875 -23.078125 C 2.695312 -22.441406 1.765625 -21.492188 1.171875 -20.234375 C 0.578125 -18.984375 0.613281 -17.613281 1.28125 -16.125 Z M 1.28125 -16.125 "/></g></g></g><g fill="#ffffff" fill-opacity="1"><g transform="translate(266.307677, 319.840035)"><g><path d="M 4.15625 -3.046875 L -6.296875 -17.296875 L -9.546875 -14.921875 L -12.921875 -19.515625 L -9.671875 -21.890625 L -11.03125 -23.75 C -12.425781 -25.65625 -13.140625 -27.414062 -13.171875 -29.03125 C -13.203125 -30.644531 -12.804688 -32.082031 -11.984375 -33.34375 C -11.171875 -34.613281 -10.171875 -35.679688 -8.984375 -36.546875 C -8.128906 -37.179688 -7.238281 -37.71875 -6.3125 -38.15625 C -5.394531 -38.601562 -4.550781 -38.929688 -3.78125 -39.140625 L -0.40625 -34.546875 C -0.988281 -34.453125 -1.625 -34.269531 -2.3125 -34 C -3 -33.738281 -3.640625 -33.390625 -4.234375 -32.953125 C -5.128906 -32.296875 -5.757812 -31.519531 -6.125 -30.625 C -6.5 -29.726562 -6.253906 -28.691406 -5.390625 -27.515625 L -4.203125 -25.90625 L 1.53125 -30.109375 L 4.90625 -25.515625 L -0.828125 -21.3125 L 9.625 -7.0625 Z M 4.15625 -3.046875 "/></g></g></g><g fill="#ffffff" fill-opacity="1"><g transform="translate(283.454814, 307.129023)"><g><path d="M 9.75 -8.703125 C 8.6875 -7.648438 7.523438 -6.851562 6.265625 -6.3125 C 5.003906 -5.769531 3.679688 -5.632812 2.296875 -5.90625 C 0.921875 -6.1875 -0.441406 -7.003906 -1.796875 -8.359375 L -9.15625 -15.796875 L -11.953125 -13.03125 L -15.96875 -17.078125 L -13.171875 -19.84375 L -17.984375 -24.6875 L -14.296875 -30.59375 L -8.359375 -24.609375 L -3.140625 -29.796875 L 0.875 -25.75 L -4.34375 -20.5625 L 2.09375 -14.0625 C 2.9375 -13.207031 3.765625 -12.796875 4.578125 -12.828125 C 5.398438 -12.867188 6.257812 -13.332031 7.15625 -14.21875 C 8.195312 -15.257812 9.023438 -16.425781 9.640625 -17.71875 L 13.484375 -13.859375 C 13.054688 -12.992188 12.535156 -12.125 11.921875 -11.25 C 11.304688 -10.382812 10.582031 -9.535156 9.75 -8.703125 Z M 9.75 -8.703125 "/></g></g></g></svg>