<svg xmlns="http://www.w3.org/2000/svg" xmlns:xlink="http://www.w3.org/1999/xlink" width="500" zoomAndPan="magnify" viewBox="0 0 375 374.999991" height="500" preserveAspectRatio="xMidYMid meet" version="1.0"><defs><g/><clipPath id="2cb04c36e9"><path d="M 198 38 L 302.769531 38 L 302.769531 157 L 198 157 Z M 198 38 " clip-rule="nonzero"/></clipPath><clipPath id="671fedb36c"><path d="M 72.519531 106 L 156 106 L 156 207 L 72.519531 207 Z M 72.519531 106 " clip-rule="nonzero"/></clipPath></defs><path fill="#ffffff" d="M 145.109375 208.101562 C 146.898438 208.640625 149.050781 207.5625 149.589844 205.773438 L 153.351562 193.582031 C 153.710938 192.328125 153.351562 190.894531 152.457031 190 C 151.558594 189.101562 150.125 188.746094 148.871094 189.101562 L 136.503906 192.867188 C 134.53125 193.40625 133.636719 195.375 134.175781 197.347656 C 134.710938 198.960938 136.144531 199.855469 137.578125 199.855469 L 122.34375 215.089844 C 120.910156 216.527344 120.910156 218.675781 122.34375 220.109375 C 123.777344 221.542969 126.109375 221.542969 127.363281 220.109375 L 142.597656 205.054688 C 142.597656 206.488281 143.671875 207.742188 145.109375 208.101562 Z M 145.109375 208.101562 " fill-opacity="1" fill-rule="nonzero"/><path fill="#ffffff" d="M 267.164062 147.878906 L 254.796875 151.644531 C 252.828125 152.179688 251.929688 154.152344 252.46875 156.125 C 253.007812 157.738281 254.441406 158.632812 255.875 158.632812 L 240.640625 173.867188 C 239.207031 175.300781 239.207031 177.453125 240.640625 178.886719 C 242.074219 180.320312 244.402344 180.320312 245.65625 178.886719 L 260.894531 163.832031 C 261.070312 165.265625 261.96875 166.519531 263.402344 166.878906 C 265.195312 167.414062 267.34375 166.339844 267.882812 164.546875 L 271.648438 152.359375 C 272.003906 151.105469 271.648438 149.671875 270.75 148.773438 C 269.855469 147.878906 268.421875 147.519531 267.164062 147.878906 Z M 267.164062 147.878906 " fill-opacity="1" fill-rule="nonzero"/><path fill="#ffffff" d="M 167.871094 101.097656 C 168.765625 101.097656 169.664062 100.742188 170.378906 100.023438 L 185.613281 84.96875 C 185.792969 86.402344 186.691406 87.65625 188.125 88.015625 C 189.917969 88.550781 192.066406 87.476562 192.605469 85.683594 L 196.367188 73.496094 C 196.726562 72.242188 196.367188 70.808594 195.472656 69.914062 C 194.578125 69.015625 193.140625 68.65625 191.886719 69.015625 L 179.519531 72.78125 C 177.550781 73.316406 176.652344 75.289062 177.191406 77.261719 C 177.726562 78.875 179.160156 79.769531 180.597656 79.769531 C 180.597656 79.769531 165.359375 95.003906 165.359375 95.003906 C 163.210938 97.15625 164.824219 101.097656 167.871094 101.097656 Z M 167.871094 101.097656 " fill-opacity="1" fill-rule="nonzero"/><g clip-path="url(#2cb04c36e9)"><path fill="#ffffff" d="M 301.21875 39.441406 C 300.503906 38.726562 299.25 38.1875 298.171875 38.367188 C 298.171875 38.367188 249.601562 46.792969 249.601562 46.792969 C 246.734375 47.328125 245.480469 50.914062 247.628906 52.886719 L 254.261719 59.515625 L 199.414062 115.617188 C 197.980469 117.050781 197.980469 119.382812 199.414062 120.636719 C 200.847656 122.070312 203.179688 122.070312 204.433594 120.636719 L 261.789062 62.027344 C 263.222656 60.59375 263.222656 58.441406 261.789062 57.007812 L 257.488281 52.707031 L 294.230469 46.253906 L 287.957031 82.816406 C 287.957031 82.816406 283.65625 78.515625 283.65625 78.515625 C 282.222656 77.082031 279.890625 77.082031 278.636719 78.515625 L 208.199219 150.566406 C 206.765625 152 206.765625 154.332031 208.199219 155.585938 C 209.632812 157.019531 211.960938 157.019531 213.214844 155.585938 L 280.96875 86.222656 C 280.96875 86.222656 287.597656 92.855469 287.597656 92.855469 C 289.570312 94.824219 293.15625 93.75 293.691406 90.882812 C 293.691406 90.882812 302.117188 42.667969 302.117188 42.667969 C 302.476562 41.414062 301.9375 40.160156 301.21875 39.441406 Z M 301.21875 39.441406 " fill-opacity="1" fill-rule="nonzero"/></g><g clip-path="url(#671fedb36c)"><path fill="#ffffff" d="M 139.730469 157.558594 C 141.703125 159.527344 145.285156 158.453125 145.824219 155.765625 C 145.824219 155.765625 155.144531 110.957031 155.324219 110.777344 C 155.863281 108.269531 153.53125 105.9375 151.023438 106.476562 C 151.023438 106.476562 106.214844 115.796875 106.035156 115.976562 C 103.347656 116.511719 102.269531 120.097656 104.242188 122.070312 L 109.796875 127.625 L 77.714844 156.304688 C 76.28125 157.558594 76.101562 159.886719 77.355469 161.320312 C 78.613281 162.753906 80.941406 162.933594 82.375 161.679688 C 82.375 161.679688 117.148438 130.492188 117.328125 130.3125 C 118.761719 129.058594 118.941406 126.550781 117.503906 125.117188 L 113.921875 121.53125 L 147.078125 114.542969 L 140.089844 147.699219 L 136.503906 144.113281 C 135.070312 142.679688 132.917969 142.679688 131.484375 144.113281 L 73.953125 200.753906 C 72.519531 202.1875 72.519531 204.335938 73.953125 205.773438 C 75.207031 207.207031 77.714844 207.207031 78.96875 205.773438 L 134.175781 151.820312 C 134.175781 151.820312 139.730469 157.558594 139.730469 157.558594 Z M 139.730469 157.558594 " fill-opacity="1" fill-rule="nonzero"/></g><path fill="#ffffff" d="M 229.886719 185.519531 C 229.886719 185.519531 185.078125 194.839844 184.898438 195.015625 C 182.210938 195.554688 181.132812 199.140625 183.105469 201.113281 L 188.839844 206.847656 L 133.097656 262.050781 C 131.664062 263.484375 131.664062 265.636719 133.097656 267.070312 C 134.53125 268.503906 136.683594 268.503906 138.117188 267.070312 C 138.117188 267.070312 196.367188 209.535156 196.367188 209.355469 C 197.800781 207.921875 197.800781 205.59375 196.367188 204.335938 L 192.785156 200.753906 L 225.941406 193.761719 L 218.953125 226.921875 C 218.953125 226.921875 215.367188 223.335938 215.367188 223.335938 C 213.933594 221.902344 211.601562 221.902344 210.167969 223.335938 L 177.011719 258.285156 C 175.578125 259.722656 175.757812 262.050781 177.191406 263.304688 C 178.625 264.738281 180.953125 264.558594 182.210938 263.125 L 212.679688 230.863281 C 212.679688 230.863281 218.234375 236.421875 218.234375 236.421875 C 220.207031 238.390625 223.792969 237.316406 224.328125 234.628906 C 224.328125 234.628906 233.648438 189.820312 233.648438 189.640625 C 234.546875 187.132812 232.394531 184.980469 229.886719 185.519531 Z M 229.886719 185.519531 " fill-opacity="1" fill-rule="nonzero"/><path fill="#ffffff" d="M 188.660156 168.492188 C 187.226562 169.925781 187.226562 172.074219 188.660156 173.507812 C 189.917969 174.765625 192.425781 174.945312 193.679688 173.507812 L 200.847656 166.339844 C 202.285156 164.90625 202.285156 162.753906 200.847656 161.320312 C 199.414062 159.886719 197.265625 159.886719 195.832031 161.320312 Z M 188.660156 168.492188 " fill-opacity="1" fill-rule="nonzero"/><path fill="#ffffff" d="M 170.378906 150.210938 L 177.550781 143.039062 C 178.984375 141.605469 178.984375 139.453125 177.550781 138.019531 C 176.113281 136.585938 173.964844 136.585938 172.53125 138.019531 L 165.359375 145.191406 C 163.925781 146.625 163.925781 148.773438 165.359375 150.210938 C 166.796875 151.644531 168.945312 151.644531 170.378906 150.210938 Z M 170.378906 150.210938 " fill-opacity="1" fill-rule="nonzero"/><path fill="#ffffff" d="M 179.699219 154.152344 C 179.699219 154.152344 168.945312 164.90625 168.945312 164.90625 C 166.796875 167.058594 168.40625 171 171.453125 171 C 172.351562 171 173.246094 170.640625 173.964844 169.925781 L 184.71875 159.171875 C 186.152344 157.738281 186.152344 155.585938 184.71875 154.152344 C 183.285156 152.71875 181.132812 152.71875 179.699219 154.152344 Z M 179.699219 154.152344 " fill-opacity="1" fill-rule="nonzero"/><path fill="#ffffff" d="M 218.054688 74.214844 C 218.953125 74.214844 219.847656 73.855469 220.566406 73.136719 L 227.734375 65.96875 C 229.167969 64.535156 229.167969 62.382812 227.734375 60.949219 C 226.300781 59.515625 224.148438 59.515625 222.714844 60.949219 C 222.714844 60.949219 215.546875 68.121094 215.546875 68.121094 C 213.394531 70.269531 215.007812 74.214844 218.054688 74.214844 Z M 218.054688 74.214844 " fill-opacity="1" fill-rule="nonzero"/><path fill="#ffffff" d="M 271.109375 118.304688 L 263.941406 125.476562 C 262.503906 126.910156 262.503906 129.058594 263.941406 130.492188 C 265.375 131.925781 267.703125 131.925781 268.957031 130.492188 L 276.128906 123.324219 C 277.5625 121.890625 277.5625 119.738281 276.128906 118.304688 C 274.695312 116.871094 272.542969 116.871094 271.109375 118.304688 Z M 271.109375 118.304688 " fill-opacity="1" fill-rule="nonzero"/><g fill="#ffffff" fill-opacity="1"><g transform="translate(76.948395, 293.590837)"><g><path d="M 2.703125 2.453125 L 25.609375 -22.8125 L 35.140625 -14.171875 C 37.179688 -12.316406 38.789062 -10.394531 39.96875 -8.40625 C 41.15625 -6.414062 41.675781 -4.363281 41.53125 -2.25 C 41.382812 -0.144531 40.316406 2 38.328125 4.1875 C 36.367188 6.351562 34.34375 7.613281 32.25 7.96875 C 30.164062 8.332031 28.070312 8.023438 25.96875 7.046875 C 23.875 6.066406 21.804688 4.648438 19.765625 2.796875 L 15.640625 -0.9375 L 8.109375 7.359375 Z M 19.953125 -5.703125 L 24.328125 -1.75 C 25.242188 -0.914062 26.175781 -0.253906 27.125 0.234375 C 28.070312 0.734375 29.03125 0.925781 30 0.8125 C 30.96875 0.695312 31.894531 0.144531 32.78125 -0.84375 C 33.675781 -1.820312 34.128906 -2.796875 34.140625 -3.765625 C 34.160156 -4.734375 33.878906 -5.664062 33.296875 -6.5625 C 32.722656 -7.46875 31.976562 -8.335938 31.0625 -9.171875 L 26.6875 -13.125 Z M 19.953125 -5.703125 "/></g></g></g><g fill="#ffffff" fill-opacity="1"><g transform="translate(103.404395, 316.770993)"><g><path d="M 7.890625 5.25 C 6.640625 4.539062 5.609375 3.640625 4.796875 2.546875 C 3.984375 1.453125 3.515625 0.253906 3.390625 -1.046875 C 3.265625 -2.347656 3.578125 -3.664062 4.328125 -5 C 5.066406 -6.300781 5.945312 -7.226562 6.96875 -7.78125 C 8 -8.332031 9.097656 -8.617188 10.265625 -8.640625 C 11.441406 -8.671875 12.625 -8.5 13.8125 -8.125 C 15 -7.757812 16.101562 -7.289062 17.125 -6.71875 C 17.9375 -6.25 18.726562 -5.726562 19.5 -5.15625 C 20.28125 -4.59375 20.992188 -4.019531 21.640625 -3.4375 L 22.046875 -4.15625 C 22.609375 -5.144531 22.671875 -6.1875 22.234375 -7.28125 C 21.796875 -8.382812 20.78125 -9.382812 19.1875 -10.28125 C 17.78125 -11.082031 16.375 -11.664062 14.96875 -12.03125 C 13.570312 -12.40625 12.28125 -12.660156 11.09375 -12.796875 L 14 -17.921875 C 14.96875 -17.742188 16.253906 -17.40625 17.859375 -16.90625 C 19.472656 -16.414062 21.054688 -15.726562 22.609375 -14.84375 C 24.671875 -13.675781 26.28125 -12.363281 27.4375 -10.90625 C 28.59375 -9.457031 29.195312 -7.832031 29.25 -6.03125 C 29.3125 -4.226562 28.710938 -2.207031 27.453125 0.03125 L 23.796875 6.5 C 23.484375 7.039062 23.421875 7.488281 23.609375 7.84375 C 23.804688 8.195312 24.085938 8.472656 24.453125 8.671875 C 24.617188 8.773438 24.804688 8.859375 25.015625 8.921875 C 25.234375 8.984375 25.429688 9.050781 25.609375 9.125 L 23.4375 12.96875 C 22.882812 12.882812 22.289062 12.738281 21.65625 12.53125 C 21.03125 12.320312 20.421875 12.050781 19.828125 11.71875 C 18.867188 11.175781 18.109375 10.503906 17.546875 9.703125 C 16.992188 8.910156 16.71875 8.023438 16.71875 7.046875 L 16.6875 6.890625 C 15.289062 7.128906 13.851562 7.128906 12.375 6.890625 C 10.90625 6.660156 9.410156 6.113281 7.890625 5.25 Z M 12.375 2.25 C 13.195312 2.707031 14.078125 3.015625 15.015625 3.171875 C 15.953125 3.328125 16.925781 3.300781 17.9375 3.09375 L 19.6875 0 C 19.300781 -0.375 18.8125 -0.78125 18.21875 -1.21875 C 17.632812 -1.65625 17.050781 -2.039062 16.46875 -2.375 C 15.414062 -2.976562 14.332031 -3.332031 13.21875 -3.4375 C 12.101562 -3.539062 11.25 -3.070312 10.65625 -2.03125 C 10.226562 -1.269531 10.1875 -0.492188 10.53125 0.296875 C 10.882812 1.097656 11.5 1.75 12.375 2.25 Z M 12.375 2.25 "/></g></g></g><g fill="#ffffff" fill-opacity="1"><g transform="translate(129.492561, 331.390735)"><g><path d="M -0.421875 11.09375 L 9.671875 -21.46875 L 15.390625 -19.703125 L 14.390625 -16.453125 C 15.398438 -17.222656 16.6875 -17.804688 18.25 -18.203125 C 19.820312 -18.597656 21.632812 -18.476562 23.6875 -17.84375 C 26.039062 -17.113281 27.851562 -15.9375 29.125 -14.3125 C 30.394531 -12.695312 31.164062 -10.859375 31.4375 -8.796875 C 31.71875 -6.742188 31.539062 -4.691406 30.90625 -2.640625 C 30.28125 -0.628906 29.269531 1.148438 27.875 2.703125 C 26.476562 4.253906 24.796875 5.335938 22.828125 5.953125 C 20.867188 6.578125 18.710938 6.523438 16.359375 5.796875 C 14.585938 5.242188 13.191406 4.476562 12.171875 3.5 C 11.148438 2.519531 10.398438 1.53125 9.921875 0.53125 L 6.03125 13.09375 Z M 16.46875 -0.140625 C 18.320312 0.429688 19.953125 0.25 21.359375 -0.6875 C 22.773438 -1.625 23.753906 -2.957031 24.296875 -4.6875 C 24.835938 -6.4375 24.789062 -8.09375 24.15625 -9.65625 C 23.519531 -11.226562 22.273438 -12.300781 20.421875 -12.875 C 19.015625 -13.3125 17.691406 -13.304688 16.453125 -12.859375 C 15.210938 -12.410156 14.222656 -11.773438 13.484375 -10.953125 L 11.84375 -5.640625 C 11.976562 -4.554688 12.429688 -3.476562 13.203125 -2.40625 C 13.972656 -1.332031 15.0625 -0.578125 16.46875 -0.140625 Z M 16.46875 -0.140625 "/></g></g></g><g fill="#ffffff" fill-opacity="1"><g transform="translate(161.108918, 340.708931)"><g><path d="M 14.96875 2.03125 C 12.507812 1.8125 10.304688 1.148438 8.359375 0.046875 C 6.410156 -1.054688 4.898438 -2.582031 3.828125 -4.53125 C 2.765625 -6.488281 2.351562 -8.8125 2.59375 -11.5 C 2.789062 -13.695312 3.328125 -15.535156 4.203125 -17.015625 C 5.085938 -18.503906 6.171875 -19.6875 7.453125 -20.5625 C 8.742188 -21.445312 10.113281 -22.0625 11.5625 -22.40625 C 13.007812 -22.757812 14.382812 -22.878906 15.6875 -22.765625 C 18.101562 -22.546875 20.078125 -21.9375 21.609375 -20.9375 C 23.148438 -19.9375 24.304688 -18.691406 25.078125 -17.203125 C 25.847656 -15.710938 26.257812 -14.097656 26.3125 -12.359375 C 26.375 -10.628906 26.132812 -8.929688 25.59375 -7.265625 L 9.1875 -8.71875 C 9.34375 -7.5625 9.789062 -6.597656 10.53125 -5.828125 C 11.28125 -5.066406 12.222656 -4.46875 13.359375 -4.03125 C 14.492188 -3.601562 15.695312 -3.335938 16.96875 -3.234375 C 18.289062 -3.109375 19.550781 -3.113281 20.75 -3.25 C 21.945312 -3.394531 23.070312 -3.628906 24.125 -3.953125 L 23.640625 1.328125 C 22.503906 1.679688 21.210938 1.925781 19.765625 2.0625 C 18.316406 2.195312 16.71875 2.1875 14.96875 2.03125 Z M 9.53125 -13.078125 L 19.8125 -12.15625 C 19.957031 -12.695312 19.953125 -13.367188 19.796875 -14.171875 C 19.640625 -14.972656 19.222656 -15.707031 18.546875 -16.375 C 17.867188 -17.050781 16.832031 -17.453125 15.4375 -17.578125 C 14.019531 -17.710938 12.734375 -17.398438 11.578125 -16.640625 C 10.421875 -15.878906 9.738281 -14.691406 9.53125 -13.078125 Z M 9.53125 -13.078125 "/></g></g></g><g fill="#ffffff" fill-opacity="1"><g transform="translate(189.790217, 342.76618)"><g><path d="M 2.859375 -0.234375 L 0.96875 -23.53125 L 6.9375 -24.015625 L 7.21875 -20.53125 C 7.957031 -21.875 9.113281 -23.007812 10.6875 -23.9375 C 12.257812 -24.875 14.15625 -25.316406 16.375 -25.265625 L 16.90625 -18.65625 C 15 -18.863281 13.28125 -18.582031 11.75 -17.8125 C 10.21875 -17.039062 9.132812 -15.925781 8.5 -14.46875 L 9.609375 -0.78125 Z M 2.859375 -0.234375 "/></g></g></g><g fill="#ffffff" fill-opacity="1"><g transform="translate(210.985006, 341.265173)"><g><path d="M 3.53125 -0.921875 L -5.125 -33.890625 L 1.9375 -35.75 L 8.90625 -9.1875 L 25.125 -13.453125 L 26.8125 -7.046875 Z M 3.53125 -0.921875 "/></g></g></g><g fill="#ffffff" fill-opacity="1"><g transform="translate(240.758592, 333.087356)"><g><path d="M 13.828125 -6.109375 C 11.617188 -5.015625 9.390625 -4.425781 7.140625 -4.34375 C 4.898438 -4.257812 2.816406 -4.769531 0.890625 -5.875 C -1.035156 -6.988281 -2.597656 -8.753906 -3.796875 -11.171875 C -4.773438 -13.148438 -5.28125 -15 -5.3125 -16.71875 C -5.34375 -18.4375 -5.039062 -20.003906 -4.40625 -21.421875 C -3.769531 -22.847656 -2.925781 -24.085938 -1.875 -25.140625 C -0.820312 -26.203125 0.285156 -27.019531 1.453125 -27.59375 C 3.628906 -28.675781 5.632812 -29.191406 7.46875 -29.140625 C 9.3125 -29.097656 10.945312 -28.644531 12.375 -27.78125 C 13.8125 -26.914062 15.003906 -25.753906 15.953125 -24.296875 C 16.910156 -22.847656 17.597656 -21.269531 18.015625 -19.5625 L 3.265625 -12.234375 C 4.003906 -11.335938 4.890625 -10.753906 5.921875 -10.484375 C 6.960938 -10.222656 8.082031 -10.203125 9.28125 -10.421875 C 10.476562 -10.648438 11.644531 -11.046875 12.78125 -11.609375 C 13.96875 -12.203125 15.035156 -12.875 15.984375 -13.625 C 16.941406 -14.375 17.773438 -15.160156 18.484375 -15.984375 L 20.859375 -11.234375 C 20.066406 -10.328125 19.085938 -9.441406 17.921875 -8.578125 C 16.765625 -7.710938 15.398438 -6.890625 13.828125 -6.109375 Z M 1.28125 -16.125 L 10.53125 -20.734375 C 10.363281 -21.273438 10.003906 -21.84375 9.453125 -22.4375 C 8.910156 -23.03125 8.171875 -23.441406 7.234375 -23.671875 C 6.304688 -23.898438 5.21875 -23.703125 3.96875 -23.078125 C 2.695312 -22.441406 1.765625 -21.492188 1.171875 -20.234375 C 0.578125 -18.984375 0.613281 -17.613281 1.28125 -16.125 Z M 1.28125 -16.125 "/></g></g></g><g fill="#ffffff" fill-opacity="1"><g transform="translate(266.307677, 319.839977)"><g><path d="M 4.15625 -3.046875 L -6.296875 -17.296875 L -9.546875 -14.921875 L -12.921875 -19.515625 L -9.671875 -21.890625 L -11.03125 -23.75 C -12.425781 -25.65625 -13.140625 -27.414062 -13.171875 -29.03125 C -13.203125 -30.644531 -12.804688 -32.082031 -11.984375 -33.34375 C -11.171875 -34.613281 -10.171875 -35.679688 -8.984375 -36.546875 C -8.128906 -37.179688 -7.238281 -37.71875 -6.3125 -38.15625 C -5.394531 -38.601562 -4.550781 -38.929688 -3.78125 -39.140625 L -0.40625 -34.546875 C -0.988281 -34.453125 -1.625 -34.269531 -2.3125 -34 C -3 -33.738281 -3.640625 -33.390625 -4.234375 -32.953125 C -5.128906 -32.296875 -5.757812 -31.519531 -6.125 -30.625 C -6.5 -29.726562 -6.253906 -28.691406 -5.390625 -27.515625 L -4.203125 -25.90625 L 1.53125 -30.109375 L 4.90625 -25.515625 L -0.828125 -21.3125 L 9.625 -7.0625 Z M 4.15625 -3.046875 "/></g></g></g><g fill="#ffffff" fill-opacity="1"><g transform="translate(283.454814, 307.129023)"><g><path d="M 9.75 -8.703125 C 8.6875 -7.648438 7.523438 -6.851562 6.265625 -6.3125 C 5.003906 -5.769531 3.679688 -5.632812 2.296875 -5.90625 C 0.921875 -6.1875 -0.441406 -7.003906 -1.796875 -8.359375 L -9.15625 -15.796875 L -11.953125 -13.03125 L -15.96875 -17.078125 L -13.171875 -19.84375 L -17.984375 -24.6875 L -14.296875 -30.59375 L -8.359375 -24.609375 L -3.140625 -29.796875 L 0.875 -25.75 L -4.34375 -20.5625 L 2.09375 -14.0625 C 2.9375 -13.207031 3.765625 -12.796875 4.578125 -12.828125 C 5.398438 -12.867188 6.257812 -13.332031 7.15625 -14.21875 C 8.195312 -15.257812 9.023438 -16.425781 9.640625 -17.71875 L 13.484375 -13.859375 C 13.054688 -12.992188 12.535156 -12.125 11.921875 -11.25 C 11.304688 -10.382812 10.582031 -9.535156 9.75 -8.703125 Z M 9.75 -8.703125 "/></g></g></g></svg>